# Tiled2Unity generated file. Do not modify by hand.
# Wavefront file for 'smallRoom1_mesh_0004.obj'

# Vertices (Count = 32)
v -2 -3 0
v -3 -3 0
v -3 -2 0
v -2 -2 0
v -7 -3 0
v -8 -3 0
v -8 -2 0
v -7 -2 0
v -2 -4 0
v -3 -4 0
v -3 -3 0
v -2 -3 0
v -7 -4 0
v -8 -4 0
v -8 -3 0
v -7 -3 0
v -2 -8 0
v -3 -8 0
v -3 -7 0
v -2 -7 0
v -7 -8 0
v -8 -8 0
v -8 -7 0
v -7 -7 0
v -2 -9 0
v -3 -9 0
v -3 -8 0
v -2 -8 0
v -7 -9 0
v -8 -9 0
v -8 -8 0
v -7 -8 0

# Texture cooridinates (Count = 9)
vt 0.6333333 0.46875
vt 0.6666667 0.46875
vt 0.6666667 0.5
vt 0.6333333 0.5
vt 0.7 0.46875
vt 0.7 0.5
vt 0.6333333 0.4375
vt 0.6666667 0.4375
vt 0.7 0.4375

# Normal
vn 0 0 -1

# Mesh description
g smallRoom1_mesh_0004

# Faces
f 1/1/1 2/2/1 3/3/1 4/4/1
f 5/2/1 6/5/1 7/6/1 8/3/1
f 9/7/1 10/8/1 11/2/1 12/1/1
f 13/8/1 14/9/1 15/5/1 16/2/1
f 17/2/1 18/5/1 19/6/1 20/3/1
f 21/1/1 22/2/1 23/3/1 24/4/1
f 25/8/1 26/9/1 27/5/1 28/2/1
f 29/7/1 30/8/1 31/2/1 32/1/1

