# Tiled2Unity generated file. Do not modify by hand.
# Wavefront file for 'smallRoom1_mesh_0003.obj'

# Vertices (Count = 16)
v -3 -6 0
v -4 -6 0
v -4 -5 0
v -3 -5 0
v -4 -6 0
v -5 -6 0
v -5 -5 0
v -4 -5 0
v -5 -6 0
v -6 -6 0
v -6 -5 0
v -5 -5 0
v -6 -7 0
v -7 -7 0
v -7 -6 0
v -6 -6 0

# Texture cooridinates (Count = 12)
vt 0.03333334 0.375
vt 0.06666667 0.375
vt 0.06666667 0.40625
vt 0.03333334 0.40625
vt 0.2666667 0.46875
vt 0.3 0.46875
vt 0.3 0.5
vt 0.2666667 0.5
vt 0.06666667 0.46875
vt 0.1 0.46875
vt 0.1 0.5
vt 0.06666667 0.5

# Normal
vn 0 0 -1

# Mesh description
g smallRoom1_mesh_0003

# Faces
f 1/1/1 2/2/1 3/3/1 4/4/1
f 5/5/1 6/6/1 7/7/1 8/8/1
f 9/9/1 10/10/1 11/11/1 12/12/1
f 13/1/1 14/2/1 15/3/1 16/4/1

